<svg width="621" height="621" viewBox="0 0 621 621" fill="none" xmlns="http://www.w3.org/2000/svg">
<rect x="0.674683" y="0.355591" width="620" height="620" rx="4.88683" fill="#D9D9D9"/>
<rect x="308" y="316" width="214.706" height="213.922" rx="103.059" fill="#D9D9D9"/>
<g clip-path="url(#clip0_195_7)">
<path d="M311 310C335.248 310 358.504 300.887 375.65 284.665C392.796 268.443 402.429 246.441 402.429 223.5C402.429 200.559 392.796 178.557 375.65 162.335C358.504 146.113 335.248 137 311 137C286.752 137 263.496 146.113 246.35 162.335C229.204 178.557 219.571 200.559 219.571 223.5C219.571 246.441 229.204 268.443 246.35 284.665C263.496 300.887 286.752 310 311 310ZM278.357 342.438C208 342.438 151 396.365 151 462.929C151 474.012 160.5 483 172.214 483H449.786C461.5 483 471 474.012 471 462.929C471 396.365 414 342.438 343.643 342.438H278.357Z" fill="#959595"/>
</g>
<defs>
<clipPath id="clip0_195_7">
<rect width="320" height="346" fill="white" transform="translate(151 137)"/>
</clipPath>
</defs>
</svg>
